# xmcd
# 
# Track frame offsets:
#     150
#     13100
#     25702
#     37127
#     47135
#     58455
#     66527
#     75507
#     85012
#     92825
#     105610
#     113792
#     124352
#     132162
#     143160
#     155197
#     166277
#     176377
#     186767
#     198965
# 
# Disc length: 2765
# 
# Revision: 3
# Processed by: cddbd v1.5.2PL0 Copyright (c) Steve Scherf et al.
# Submitted via: BonkEnc v1.0
# 
DISCID=1b0acb14
DTITLE=Johnny Cash - Digital Remastered
DYEAR=1998
DGENRE=Country
TTITLE0=Folsom Prison Blues
TTITLE1=I Walk The Line
TTITLE2=Oh, Lonsome Me
TTITLE3=Rock Island Line
TTITLE4=Cry, Cry, Cry
TTITLE5=I Can't Help It
TTITLE6=Katy Too
TTITLE7=Luther's Boogie-Good Bye Little Darling
TTITLE8=Hey Good Lookin'
TTITLE9=Next In Line
TTITLE10=Wreck Of The Old 97
TTITLE11=There You Go
TTITLE12=Come In Stranger
TTITLE13=Train Of Love
TTITLE14=So Doggone Lonesome
TTITLE15=Belshazah
TTITLE16=Ballad Of A Teenage Queen
TTITLE17=Ways Of A Woman In Love
TTITLE18=Home Of The Blues
TTITLE19=Country Boy
EXTD=
EXTT0=
EXTT1=
EXTT2=
EXTT3=
EXTT4=
EXTT5=
EXTT6=
EXTT7=
EXTT8=
EXTT9=
EXTT10=
EXTT11=
EXTT12=
EXTT13=
EXTT14=
EXTT15=
EXTT16=
EXTT17=
EXTT18=
EXTT19=
PLAYORDER=
